<svg xmlns="http://www.w3.org/2000/svg" width="101" height="111" viewBox="0 0 101 111"><defs><style>.a{fill:rgba(253,82,0,0.13);}.b{fill:rgba(255,204,55,0.76);}.c{fill:none;stroke:rgba(0,0,0,0.7);stroke-width:3px;}</style></defs><g transform="translate(-632.5 -1044)"><circle class="a" cx="24.5" cy="24.5" r="24.5" transform="translate(642 1044)"/><circle class="b" cx="16.5" cy="16.5" r="16.5" transform="translate(699 1122)"/><path class="c" d="M95.55,53.9H93.1V37.347a7.35,7.35,0,0,0-2.159-5.191l-15.3-15.3A7.35,7.35,0,0,0,70.453,14.7H63.7V7.35A7.352,7.352,0,0,0,56.35,0h-49A7.352,7.352,0,0,0,0,7.35v49A7.352,7.352,0,0,0,7.35,63.7H9.8a14.7,14.7,0,0,0,29.4,0H58.8a14.7,14.7,0,0,0,29.4,0h7.35A2.457,2.457,0,0,0,98,61.25v-4.9A2.457,2.457,0,0,0,95.55,53.9ZM24.5,71.05a7.35,7.35,0,1,1,7.35-7.35A7.352,7.352,0,0,1,24.5,71.05Zm49,0a7.35,7.35,0,1,1,7.35-7.35A7.352,7.352,0,0,1,73.5,71.05ZM85.75,39.2H63.7V22.05h6.753l15.3,15.3Z" transform="translate(634 1068.53)"/></g></svg>