<svg xmlns="http://www.w3.org/2000/svg" width="98.987" height="111.999" viewBox="0 0 98.987 111.999"><defs><style>.a{fill:rgba(253,82,0,0.13);}.b{fill:rgba(255,204,55,0.76);}.c{fill:none;stroke:rgba(0,0,0,0.7);stroke-width:3px;}</style></defs><g transform="translate(-1057.507 -1061.001)"><circle class="a" cx="24.5" cy="24.5" r="24.5" transform="translate(1058 1124)"/><circle class="b" cx="16.5" cy="16.5" r="16.5" transform="translate(1107 1073)"/><path class="c" d="M41.826,14.131l-4.9,6.661H25.5c1.41,4.023,6.027,7.817,12.474,6.558C39.88,27.22,46.328,26.2,49,26.826c3.557.853,2.074.857,8.451,5.975L89.232,59.012c1.947,1.72,4.438,1.016,6.162-.927s1.821-5.4-.127-7.119L55.034,18.779c-2.519-2.022-3.154-4.822-4.023-8.047-1.69-5.542-7.9-9.988-14-9.988C32.093.745,26.8,5,24.86,8.721h12.07Zm27.6,48.9L56.989,41.451c-.491-.9-1.732-2.555-2.752-2.555H19.621c-1.02,0-2.261,1.66-2.754,2.555L4.743,63.035h-.31c-2.042,0-3.713.742-3.713,2.786V84.389c0,2.044,1.672,2.786,3.713,2.786H8.767v6.5c0,3.066,1.887,5.572,4.951,5.572h1.857a5.33,5.33,0,0,0,5.262-5.572v-6.5H53.022v6.5a5.331,5.331,0,0,0,5.26,5.572H60.14c3.066,0,4.953-2.506,4.953-5.572v-6.5h4.333c2.042,0,3.713-.742,3.713-2.786V65.821C73.139,63.778,71.467,63.035,69.425,63.035ZM10.933,76.962a4.642,4.642,0,1,1,4.643-4.642,4.641,4.641,0,0,1-4.643,4.642Zm3.713-13.927,7.526-15.747c.457-.913,1.668-2.358,2.688-2.358H49c1.02,0,2.229,1.444,2.688,2.358l7.526,15.747ZM62.926,76.962a4.643,4.643,0,1,1,4.643-4.643,4.643,4.643,0,0,1-4.643,4.643Z" transform="translate(1058.287 1061.755)"/></g></svg>