<svg xmlns="http://www.w3.org/2000/svg" width="116.25" height="102.5" viewBox="0 0 116.25 102.5"><defs><style>.a{fill:rgba(253,82,0,0.13);}.b{fill:rgba(255,204,55,0.76);}.c{fill:none;}.d,.e{stroke:none;}.e{fill:rgba(0,0,0,0.7);}</style></defs><g transform="translate(-225.75 -1062.5)"><circle class="a" cx="24.5" cy="24.5" r="24.5" transform="translate(293 1063)"/><circle class="b" cx="16.5" cy="16.5" r="16.5" transform="translate(226 1132)"/><g class="c" transform="translate(225.188 1061.938)"><path class="d" d="M98.562,49.719A49.238,49.238,0,0,1,49.6,99.062a48.641,48.641,0,0,1-30.787-10.9,4.779,4.779,0,0,1-.363-7.071l2.226-2.238a4.733,4.733,0,0,1,6.3-.394A36.328,36.328,0,0,0,85.917,49.812,36.323,36.323,0,0,0,24.654,23.188L34.682,33.267a3.179,3.179,0,0,1-2.235,5.424H3.724A3.169,3.169,0,0,1,.563,35.514V6.645A3.159,3.159,0,0,1,5.959,4.4l9.755,9.8A48.948,48.948,0,0,1,98.562,49.719ZM62.818,65.365l1.941-2.508a4.782,4.782,0,0,0-.832-6.688l-8.042-6.287V29.159a4.754,4.754,0,0,0-4.742-4.766H47.982a4.754,4.754,0,0,0-4.742,4.766V56.1L56.163,66.2A4.726,4.726,0,0,0,62.818,65.365Z"/><path class="e" d="M 49.56245422363281 3.5625 C 37.67093276977539 3.5625 26.38809967041016 8.109573364257813 17.79235076904297 16.36612701416016 L 15.66647338867188 18.40811157226563 L 13.58744049072266 16.31846618652344 L 3.832611083984375 6.513870239257813 C 3.779899597167969 6.460899353027344 3.760948181152344 6.460899353027344 3.747116088867188 6.460899353027344 C 3.691612243652344 6.460914611816406 3.5625 6.47882080078125 3.5625 6.644668579101563 L 3.5625 35.51408386230469 C 3.5625 35.61191558837891 3.634857177734375 35.69149780273438 3.723777770996094 35.69149780273438 L 32.4466552734375 35.69149780273438 C 32.50894927978516 35.69149780273438 32.55008697509766 35.69149780273438 32.59317779541016 35.58783721923828 C 32.64199066162109 35.47042083740234 32.59982299804688 35.42803955078125 32.55517578125 35.38315582275391 L 22.52717590332031 25.30399322509766 L 20.35654449462891 23.12229919433594 L 22.59293365478516 21.00806427001953 C 29.91608428955078 14.08491516113281 39.49404144287109 10.27215576171875 49.56245422363281 10.27215576171875 C 71.26277923583984 10.27215576171875 88.91726684570313 28.00986480712891 88.91726684570313 49.81245040893555 C 88.91726684570313 71.61503601074219 71.26277923583984 89.35274505615234 49.56245422363281 89.35274505615234 C 40.5765495300293 89.35274505615234 32.11890411376953 86.39533996582031 25.10410308837891 80.80045318603516 C 24.72779083251953 80.50038909912109 24.32896423339844 80.43740844726563 24.06063842773438 80.43740844726563 C 23.58616638183594 80.43740844726563 23.13850402832031 80.62471008300781 22.80013275146484 80.96480560302734 L 20.57401275634766 83.20228576660156 C 20.08887481689453 83.68989562988281 20.04297637939453 84.26095581054688 20.05879211425781 84.55797576904297 C 20.07436370849609 84.85037231445313 20.17845916748047 85.40414428710938 20.70059204101563 85.82771301269531 C 24.70376586914063 89.07508087158203 29.17575073242188 91.60478973388672 33.99230194091797 93.3465576171875 C 38.97542572021484 95.14854431152344 44.21396255493164 96.06223297119141 49.56239318847656 96.06223297119141 L 49.59590148925781 96.06221771240234 C 55.76517868041992 96.05786895751953 61.75842666625977 94.83444976806641 67.40916442871094 92.42598724365234 C 72.86905670166016 90.09886932373047 77.78091430664063 86.76998901367188 82.00828552246094 82.53182220458984 C 86.26564025878906 78.26360321044922 89.60714721679688 73.29631042480469 91.93999481201172 67.76792907714844 C 94.35516357421875 62.04443740844727 95.57392883300781 55.9738655090332 95.56240844726563 49.72484970092773 C 95.55093383789063 43.48740386962891 94.32636260986328 37.43943786621094 91.9227294921875 31.74894714355469 C 89.60053253173828 26.25126647949219 86.28070068359375 21.31414031982422 82.05544281005859 17.07472991943359 C 77.83090209960938 12.83603668212891 72.91453552246094 9.508880615234375 67.44290161132813 7.1856689453125 C 61.78060913085938 4.781509399414063 55.76474761962891 3.5625 49.56245422363281 3.5625 M 47.98180770874023 27.39312744140625 C 47.02131652832031 27.39312744140625 46.23988723754883 28.18540191650391 46.23988723754883 29.15924835205078 L 46.23988723754883 54.63532257080078 L 58.01094818115234 63.83736038208008 C 58.39979553222656 64.14131164550781 58.80227279663086 64.20510864257813 59.07144165039063 64.20510864257813 C 59.61193084716797 64.20510864257813 60.11264038085938 63.95865249633789 60.44511795043945 63.52900695800781 L 62.38597869873047 61.02074432373047 C 62.98390197753906 60.24808120727539 62.84628677368164 59.13166809082031 62.07908630371094 58.53197479248047 L 54.03734970092773 52.24526596069336 L 52.88502502441406 51.34442138671875 L 52.88502502441406 49.88177490234375 L 52.88502502441406 29.15924835205078 C 52.88502502441406 28.18540191650391 52.10359573364258 27.39312744140625 51.14310073852539 27.39312744140625 L 47.98180770874023 27.39312744140625 M 49.56245422363281 0.5625 C 76.59344482421875 0.5625 98.51242828369141 22.56212615966797 98.56240844726563 49.71932983398438 C 98.61241149902344 76.85445404052734 76.59542846679688 99.04314422607422 49.59802627563477 99.06221771240234 C 49.58663940429688 99.06222534179688 49.57378005981445 99.06223297119141 49.56239700317383 99.06223297119141 C 37.91542053222656 99.06223297119141 27.21914672851563 94.97852325439453 18.81063842773438 88.15753173828125 C 16.62203979492188 86.38214111328125 16.45845794677734 83.08537292480469 18.44728851318359 81.08637237548828 L 20.67342376708984 78.84888458251953 C 21.60063934326172 77.91694641113281 22.82939147949219 77.43742370605469 24.06060791015625 77.43740844726563 C 25.08806610107422 77.43739318847656 26.11721038818359 77.77130126953125 26.97447204589844 78.45487976074219 C 33.17551422119141 83.40072631835938 41.02322387695313 86.35274505615234 49.56245422363281 86.35274505615234 C 69.65737915039063 86.35274505615234 85.91726684570313 70.00672912597656 85.91726684570313 49.81245040893555 C 85.91726684570313 29.61500549316406 69.65422058105469 13.27215576171875 49.56245422363281 13.27215576171875 C 39.91776275634766 13.27215576171875 31.15804290771484 17.03919219970703 24.65388488769531 23.18807983398438 L 34.681884765625 33.26725006103516 C 36.67348480224609 35.26902008056641 35.26296234130859 38.69149780273438 32.4466552734375 38.69149780273438 L 3.723777770996094 38.69149780273438 C 1.977760314941406 38.69149780273438 0.5625 37.26900482177734 0.5625 35.51408386230469 L 0.5625 6.644668579101563 C 0.5625 4.729499816894531 2.121635437011719 3.46112060546875 3.746681213378906 3.460899353027344 C 4.523513793945313 3.460792541503906 5.315078735351563 3.750480651855469 5.959213256835938 4.397834777832031 L 15.71414947509766 14.20254516601563 C 24.51102447509766 5.7528076171875 36.43362426757813 0.5625 49.56245422363281 0.5625 Z M 47.98180770874023 24.39312744140625 L 51.14310073852539 24.39312744140625 C 53.76203918457031 24.39312744140625 55.88502502441406 26.52696228027344 55.88502502441406 29.15924835205078 L 55.88502502441406 49.88177490234375 L 63.92676162719727 56.16848373413086 C 65.99404144287109 57.78440475463867 66.36647033691406 60.77891159057617 64.75856018066406 62.85674285888672 L 62.8177490234375 65.36492919921875 C 61.88286972045898 66.57301330566406 60.48464965820313 67.20510864257813 59.07143402099609 67.20510864257813 C 58.05402374267578 67.20510864257813 57.02875137329102 66.87736511230469 56.16342544555664 66.20097351074219 L 43.23988723754883 56.09797286987305 L 43.23988723754883 29.15924835205078 C 43.23988723754883 26.52696228027344 45.36288833618164 24.39312744140625 47.98180770874023 24.39312744140625 Z"/></g></g></svg>